<svg width="212" height="53" viewBox="0 0 212 53" fill="none" xmlns="http://www.w3.org/2000/svg">
    <path d="M18.9169 5.56985L1.61255 35.1167C-2.86273 42.7511 2.5076 52.4777 11.1956 52.4777H45.8044C54.4924 52.4777 59.8627 42.7634 55.3875 35.1167L38.0831 5.56985C33.7391 -1.85662 23.2609 -1.85662 18.9169 5.56985ZM35.9946 6.8912L53.3587 36.5237C55.8171 40.7202 52.8694 46.079 48.0838 46.079H13.3676C8.58204 46.079 5.63433 40.7324 8.09275 36.5237L25.4568 6.8912C27.8436 2.81704 33.6078 2.81704 35.9946 6.8912Z" fill="#D8AD7A"/>
    <path d="M29.1213 13.0711L17.5811 32.7813C15.8029 35.8155 17.9391 39.6816 21.388 39.6816H44.4805C47.9294 39.6816 50.0656 35.8155 48.2874 32.7813L36.7472 13.0711C35.0167 10.1348 30.8518 10.1348 29.1213 13.0711ZM36.6398 17.7448L44.1702 30.6035C44.8623 31.778 44.027 33.2829 42.6903 33.2829H27.6296C26.2929 33.2829 25.4576 31.778 26.1497 30.6035L33.6801 17.7448C34.3604 16.607 35.9715 16.607 36.6398 17.7448Z" fill="#D8AD7A"/>
    <path d="M76 39.8142H88.0237C93.3849 39.8142 96.7682 36.975 96.7682 32.5855V32.5507C96.7682 29.3631 94.235 26.8026 90.9559 26.6284V26.2974C93.6104 25.9317 95.6231 23.6498 95.6231 20.9674V20.9326C95.6231 17.0482 92.6735 14.6793 87.6767 14.6793H76V39.8142ZM85.9764 19.1907C88.1451 19.1907 89.4117 20.2707 89.4117 22.0473V22.0822C89.4117 23.8414 88.0584 24.9214 85.7335 24.9214H82.3675V19.1907H85.9764ZM86.1846 28.8057C88.8218 28.8057 90.2966 29.9379 90.2966 31.9933V32.0281C90.2966 34.1358 88.8565 35.3028 86.2193 35.3028H82.3675V28.8057H86.1846Z" fill="#27AE60"/>
    <path d="M111.958 40.4935C118.378 40.4935 122.82 36.5743 123.236 30.9656V30.6869H117.111L117.077 30.8785C116.643 33.4739 114.717 35.1983 111.976 35.1983C108.471 35.1983 106.337 32.1849 106.337 27.238V27.2032C106.337 22.2912 108.471 19.2952 111.958 19.2952C114.7 19.2952 116.712 21.1416 117.077 23.7718L117.094 23.9285H123.219V23.615C122.854 18.0585 118.256 14 111.958 14C104.446 14 99.8479 19.0339 99.8479 27.2206V27.2555C99.8479 35.4421 104.463 40.4935 111.958 40.4935Z" fill="#27AE60"/>
    <path d="M138.478 40.4935C144.898 40.4935 149.339 36.5743 149.756 30.9656V30.6869H143.631L143.597 30.8785C143.163 33.4739 141.237 35.1983 138.496 35.1983C134.991 35.1983 132.857 32.1849 132.857 27.238V27.2032C132.857 22.2912 134.991 19.2952 138.478 19.2952C141.22 19.2952 143.232 21.1416 143.597 23.7718L143.614 23.9285H149.739V23.615C149.374 18.0585 144.776 14 138.478 14C130.966 14 126.368 19.0339 126.368 27.2206V27.2555C126.368 35.4421 130.983 40.4935 138.478 40.4935Z" fill="#27AE60"/>
    <path d="M157.763 40.389C159.845 40.389 161.25 38.9258 161.25 36.9576C161.25 34.9893 159.845 33.5435 157.763 33.5435C155.698 33.5435 154.293 34.9893 154.293 36.9576C154.293 38.9258 155.698 40.389 157.763 40.389Z" fill="#27AE60"/>
    <path d="M167.089 39.8142H173.456V32.7074L175.66 29.9031L181.975 39.8142H189.453L180.292 25.7749L188.95 14.6793H182.114L173.786 25.4788H173.456V14.6793H167.089V39.8142Z" fill="#27AE60"/>
    <path d="M192.255 39.8142H212V34.6757H199.89V34.3448L211.636 18.7378V14.6793H192.446V19.8178H204.002V20.1487L192.255 35.7557V39.8142Z" fill="#27AE60"/>
</svg>
