<svg xmlns="http://www.w3.org/2000/svg" width="302" height="148" viewBox="0 0 302 148"><title>302х148</title><path d="M57.38,51.9l-19,31.59a12.25,12.25,0,0,0,10.5,18.56H86.85a12.25,12.25,0,0,0,10.5-18.56l-19-31.59a12.25,12.25,0,0,0-21,0M76.1,53.32,95.13,85a6.74,6.74,0,0,1-5.78,10.21h-38A6.74,6.74,0,0,1,45.52,85l19-31.68a6.74,6.74,0,0,1,11.56,0" style="fill:#daab6b"/><path d="M68.57,59.93,55.91,81a4.88,4.88,0,0,0,4.18,7.38h25.3A4.87,4.87,0,0,0,89.56,81L76.91,59.93a4.86,4.86,0,0,0-8.34,0m8.24,5,8.25,13.74a1.89,1.89,0,0,1-1.62,2.87H66.93a1.9,1.9,0,0,1-1.62-2.87l8.26-13.74a1.89,1.89,0,0,1,3.24,0" style="fill:#daab6b"/><path d="M127.72,60.35a12.22,12.22,0,0,1,9.36,4,14.78,14.78,0,0,1,0,19.79,12.45,12.45,0,0,1-9.41,4,10.5,10.5,0,0,1-8.48-4.15v3.51H113v-37h6.33v14a10.5,10.5,0,0,1,8.43-4m6.68,13.84a8,8,0,0,0-2.14-5.66,7.72,7.72,0,0,0-11.07,0,8,8,0,0,0-2.14,5.66,8.3,8.3,0,0,0,2.14,5.75,7.83,7.83,0,0,0,11.07,0,8.3,8.3,0,0,0,2.14-5.75" style="fill:#27ae60"/><path d="M158.48,88a13.84,13.84,0,0,1-10.09-3.9,13.46,13.46,0,0,1-3.9-9.94,13.37,13.37,0,0,1,3.95-10,14.06,14.06,0,0,1,10.23-3.89,14.35,14.35,0,0,1,7.38,1.92,11.89,11.89,0,0,1,4.9,5.34l-5.17,2.77a8.07,8.07,0,0,0-12.71-1.9,7.73,7.73,0,0,0-2.25,5.71,7.94,7.94,0,0,0,2.2,5.7,7.34,7.34,0,0,0,5.55,2.29A8.12,8.12,0,0,0,162.74,81a7.43,7.43,0,0,0,2.95-3l5.16,3a12.91,12.91,0,0,1-5,5.09A14.54,14.54,0,0,1,158.48,88" style="fill:#27ae60"/><path d="M187.72,88a13.84,13.84,0,0,1-10.09-3.9,13.46,13.46,0,0,1-3.9-9.94,13.4,13.4,0,0,1,4-10,14.06,14.06,0,0,1,10.23-3.89,14.35,14.35,0,0,1,7.38,1.92,11.89,11.89,0,0,1,4.9,5.34L195,70.38a7.84,7.84,0,0,0-7-4.19,7.74,7.74,0,0,0-7.94,8,7.94,7.94,0,0,0,2.19,5.7,7.34,7.34,0,0,0,5.55,2.29A8.12,8.12,0,0,0,192,81a7.43,7.43,0,0,0,3-3l5.16,3a12.85,12.85,0,0,1-5,5.09A14.54,14.54,0,0,1,187.72,88" style="fill:#27ae60"/><path d="M207.26,88.22a3.73,3.73,0,0,1-2.73-1.1,3.61,3.61,0,0,1-1.12-2.7,3.48,3.48,0,0,1,1.12-2.63,3.79,3.79,0,0,1,2.73-1.07,3.54,3.54,0,0,1,2.63,1.07A3.58,3.58,0,0,1,211,84.42a3.73,3.73,0,0,1-1.07,2.7,3.5,3.5,0,0,1-2.63,1.1" style="fill:#27ae60"/><polygon points="241.62 87.44 233.72 87.44 224.66 75.89 222.71 77.65 222.71 87.44 216.37 87.44 216.37 50.4 222.71 50.4 222.71 70.43 232.89 60.98 240.98 60.98 229.04 71.9 241.62 87.44" style="fill:#27ae60"/><polygon points="264.86 65.22 251.36 82.13 265.35 82.13 265.35 87.44 242.69 87.44 242.69 83.15 256.38 66.34 243.37 66.34 243.37 61.03 264.86 61.03 264.86 65.22" style="fill:#27ae60"/></svg>